<?xml version="1.0" encoding="UTF-8"?>
<svg xmlns="http://www.w3.org/2000/svg" xmlns:xlink="http://www.w3.org/1999/xlink" width="67px" height="50px" viewBox="0 0 66 50" version="1.1">
<g id="surface1">
<path style=" stroke:none;fill-rule:nonzero;fill:rgb(100%,0%,0%);fill-opacity:1;" d="M 26.398438 0 L 66 0 L 66 50 L 26.398438 50 Z M 26.398438 0 "/>
<path style=" stroke:none;fill-rule:nonzero;fill:rgb(0%,40%,0%);fill-opacity:1;" d="M 0 0 L 26.398438 0 L 26.398438 50 L 0 50 Z M 0 0 "/>
<path style="fill-rule:evenodd;fill:rgb(100%,100%,0%);fill-opacity:1;stroke-width:0.6;stroke-linecap:round;stroke-linejoin:round;stroke:rgb(0%,0%,0%);stroke-opacity:1;stroke-miterlimit:4;" d="M 339.507576 306.1875 C 307.19697 305.2125 159.507576 213 158.484848 198.1875 L 166.590909 184.6875 C 181.287879 205.9875 332.310606 295.6875 347.19697 292.5 L 339.507576 306.1875 " transform="matrix(0.103125,0,0,0.104167,0,0)"/>
<path style="fill-rule:evenodd;fill:rgb(100%,100%,0%);fill-opacity:1;stroke-width:0.6;stroke-linecap:round;stroke-linejoin:round;stroke:rgb(0%,0%,0%);stroke-opacity:1;stroke-miterlimit:4;" d="M 164.886364 182.8125 C 162.007576 190.6125 203.484848 216.1875 253.295455 246.6 C 303.181818 276.9 346.212121 295.6125 349.318182 292.9875 L 350.795455 290.2125 C 350.189394 291.1875 348.787879 291.4875 346.515152 290.8125 C 332.992424 286.9125 297.916667 270.7875 254.393939 244.3875 C 210.795455 217.9875 172.992424 193.6875 167.083333 183.4125 C 166.628788 182.4375 166.439394 181.35 166.515152 180.3 L 166.287879 180.3 L 165.113636 182.5125 Z M 340.189394 306.6 C 339.69697 307.6125 338.598485 307.6125 336.704545 307.3875 C 324.69697 306.1125 288.106061 288.3 244.810606 262.3875 C 194.393939 232.2 152.80303 204.7875 157.386364 197.5875 L 158.598485 195.4125 L 158.787879 195.4875 C 154.810606 207.7125 240.909091 256.9125 245.984848 260.1 C 295.795455 290.8875 337.80303 309 341.515152 304.3125 Z M 340.189394 306.6 " transform="matrix(0.103125,0,0,0.104167,0,0)"/>
<path style="fill-rule:evenodd;fill:rgb(100%,100%,0%);fill-opacity:1;stroke-width:0.6;stroke-linecap:round;stroke-linejoin:round;stroke:rgb(0%,0%,0%);stroke-opacity:1;stroke-miterlimit:4;" d="M 256.212121 207.1875 C 288.409091 206.8875 328.181818 202.8 351.212121 193.6125 L 346.212121 185.5875 C 332.689394 193.0875 292.689394 198.1125 255.909091 198.7875 C 212.5 198.4125 181.818182 194.2875 166.401515 184.0125 L 161.818182 192.6 C 190 204.6 219.015152 207.1125 256.212121 207.1875 " transform="matrix(0.103125,0,0,0.104167,0,0)"/>
<path style="fill-rule:evenodd;fill:rgb(100%,100%,0%);fill-opacity:1;stroke-width:0.6;stroke-linecap:round;stroke-linejoin:round;stroke:rgb(0%,0%,0%);stroke-opacity:1;stroke-miterlimit:4;" d="M 352.5 193.8 C 351.704545 195.1125 336.704545 200.2125 314.69697 204 C 295.30303 206.925 275.719697 208.3875 256.098485 208.3125 C 237.310606 208.3875 218.522727 207.15 199.886364 204.7125 C 176.818182 201.1125 164.886364 196.0875 160.416667 194.2875 L 161.515152 192.1125 C 174.204545 197.1 186.212121 200.1 200.189394 202.3125 C 218.712121 204.7875 237.348485 206.025 255.984848 205.9875 C 275.530303 206.025 295 204.6 314.318182 201.7125 C 336.818182 198 349.090909 193.3125 350.909091 191.2125 L 352.5 193.9125 Z M 348.106061 185.7 C 345.681818 187.6875 333.484848 192 312.083333 195.4125 C 293.636364 198.075 274.962121 199.425 256.287879 199.3875 C 234.318182 199.3875 216.212121 197.8125 202.5 195.7875 C 180.681818 193.0125 169.090909 187.8 164.886364 186.4125 L 166.212121 184.2 C 169.507576 185.8875 180.606061 190.3875 202.689394 193.5 C 220.454545 195.8625 238.371212 197.025 256.287879 196.9125 C 274.848485 196.9125 293.371212 195.5625 311.704545 192.9 C 333.181818 189.9 344.810606 184.5 346.590909 183.1125 Z M 150.30303 246 C 170.113636 256.6875 214.204545 262.0125 255.909091 262.3875 C 293.901515 262.5 343.295455 256.6125 361.818182 246.7875 L 361.287879 236.1 C 355.492424 245.1 302.5 253.8 255.492424 253.5 C 208.484848 253.0875 164.810606 245.8875 150.189394 236.5125 L 150.189394 246 " transform="matrix(0.103125,0,0,0.104167,0,0)"/>
<path style="fill-rule:evenodd;fill:rgb(100%,100%,0%);fill-opacity:1;stroke-width:0.6;stroke-linecap:round;stroke-linejoin:round;stroke:rgb(0%,0%,0%);stroke-opacity:1;stroke-miterlimit:4;" d="M 362.80303 244.5 L 362.80303 247.0125 C 360 250.3875 342.613636 255.4125 320.795455 259.0125 C 299.128788 262.125 277.272727 263.5875 255.416667 263.4 C 234.659091 263.5875 213.939394 262.125 193.409091 259.0875 C 178.068182 257.325 163.106061 253.275 149.015152 247.0875 L 149.015152 244.2 C 158.712121 250.6125 184.886364 255.4125 193.712121 256.8 C 209.507576 259.2 229.810606 261 255.416667 261 C 282.310606 261 303.787879 259.0875 320.416667 256.6125 C 336.098485 254.2875 358.409091 248.4 362.80303 244.5 Z M 362.80303 235.5 L 362.80303 238.0125 C 360 241.3125 342.613636 246.3 320.795455 249.9 C 299.128788 253.05 277.272727 254.55 255.416667 254.4 C 234.659091 254.5125 213.939394 253.0875 193.409091 250.0875 C 178.068182 248.325 163.106061 244.275 149.015152 238.0875 L 149.015152 235.0875 C 158.712121 241.6125 185 246.3 193.712121 247.6875 C 214.128788 250.6875 234.772727 252.1125 255.416667 252 C 282.310606 252 303.901515 250.0125 320.416667 247.5 C 336.098485 245.2875 358.409091 239.4 362.80303 235.5 Z M 255.795455 304.3125 C 210.189394 304.0875 171.098485 291.9 162.80303 289.9125 L 168.787879 299.2875 C 196.856061 309.225 226.439394 314.0625 256.212121 313.6125 C 290.909091 312.6 321.212121 309.9 342.5 299.5125 L 348.712121 289.6875 C 334.204545 296.5875 284.69697 304.3125 255.681818 304.3125 " transform="matrix(0.103125,0,0,0.104167,0,0)"/>
<path style="fill-rule:evenodd;fill:rgb(100%,100%,0%);fill-opacity:1;stroke-width:0.6;stroke-linecap:round;stroke-linejoin:round;stroke:rgb(0%,0%,0%);stroke-opacity:1;stroke-miterlimit:4;" d="M 344.886364 297.3 C 343.977273 298.65 343.068182 300 342.083333 301.3125 C 332.083333 304.9125 316.098485 308.7 309.507576 309.7125 C 291.780303 313.0125 273.825758 314.6625 255.795455 314.7 C 215.416667 314.1 182.310606 306.1875 166.818182 299.4 L 165.492424 297.3 L 165.681818 296.8875 L 167.80303 297.7875 C 196.25 307.2 226.022727 312.1125 255.984848 312.3 C 274.810606 312.3 293.484848 310.2 308.598485 307.5 C 331.818182 302.8125 341.212121 299.2875 344.090909 297.7125 L 344.810606 297.3 Z M 350.189394 288.4875 C 349.545455 289.6875 348.863636 290.85 348.181818 292.0125 C 342.80303 294 328.181818 298.2 306.893939 301.2 C 292.916667 303.1125 284.204545 304.9875 256.287879 305.5125 C 224.393939 305.175 192.727273 300.4875 162.083333 291.4875 L 160.984848 289.0125 C 192.083333 297.6 224.128788 302.2875 256.401515 303 C 281.893939 302.5125 292.80303 300.6 306.704545 298.6875 C 331.515152 294.9 344.015152 290.7 347.689394 289.6125 C 347.689394 289.5375 347.689394 289.4625 347.689394 289.3875 L 350.30303 288.4125 Z M 350.189394 288.4875 " transform="matrix(0.103125,0,0,0.104167,0,0)"/>
<path style="fill-rule:evenodd;fill:rgb(100%,100%,0%);fill-opacity:1;stroke-width:0.6;stroke-linecap:round;stroke-linejoin:round;stroke:rgb(0%,0%,0%);stroke-opacity:1;stroke-miterlimit:4;" d="M 350.795455 237.6 C 350.909091 267.6 335.492424 294.6 323.181818 306.4125 C 305.037879 324.1125 280.757576 334.2 255.416667 334.6125 C 225.113636 335.1 196.590909 315.4125 188.901515 306.7125 C 171.666667 288.45 161.856061 264.4125 161.401515 239.2875 C 163.181818 206.5125 176.098485 183.7125 194.69697 168 C 212.765152 153.1125 235.492424 145.0875 258.901515 145.3125 C 286.515152 146.625 312.310606 159.5625 329.886364 180.9 C 342.386364 196.0875 347.916667 212.5875 350.795455 237.6 Z M 255.606061 135 C 313.825758 135 361.174242 181.9875 361.590909 240.1875 C 361.590909 298.575 314.280303 345.9 255.909091 345.9 C 197.537879 345.9 150.189394 298.575 150.189394 240.1875 C 150.113636 182.2125 197.5 135 255.606061 135 " transform="matrix(0.103125,0,0,0.104167,0,0)"/>
<path style="fill-rule:evenodd;fill:rgb(100%,100%,0%);fill-opacity:1;stroke-width:0.6;stroke-linecap:round;stroke-linejoin:round;stroke:rgb(0%,0%,0%);stroke-opacity:1;stroke-miterlimit:4;" d="M 255.909091 134.5125 C 314.090909 134.5125 361.515152 181.9125 361.515152 240.1125 C 361.515152 298.3125 314.090909 345.7125 255.984848 345.7125 C 197.916667 345.7125 150.416667 298.3125 150.416667 240.1125 C 150.416667 181.9125 197.80303 134.5125 255.984848 134.5125 Z M 152.613636 240 C 152.613636 296.8125 199.318182 343.3125 255.909091 343.3125 C 312.5 343.3125 359.204545 296.8125 359.204545 240 C 359.204545 183.1875 312.5 136.6875 255.909091 136.6875 C 199.318182 136.6875 152.613636 183.1875 152.613636 240 Z M 152.613636 240 " transform="matrix(0.103125,0,0,0.104167,0,0)"/>
<path style="fill-rule:evenodd;fill:rgb(100%,100%,0%);fill-opacity:1;stroke-width:0.6;stroke-linecap:round;stroke-linejoin:round;stroke:rgb(0%,0%,0%);stroke-opacity:1;stroke-miterlimit:4;" d="M 255.984848 143.2875 C 309.356061 143.475 352.537879 186.675 352.689394 240 C 352.537879 293.3625 309.356061 336.5625 255.984848 336.7875 C 202.992424 336.7875 159.318182 293.2125 159.318182 240 C 159.507576 186.675 202.689394 143.5125 255.984848 143.2875 Z M 161.590909 240 C 161.590909 292.0125 204.204545 334.3875 255.984848 334.3875 C 307.80303 334.3875 350.416667 291.9 350.416667 240 C 350.416667 187.9875 307.80303 145.6125 255.984848 145.6125 C 203.939394 145.8375 161.818182 187.95 161.590909 240 Z M 161.590909 240 " transform="matrix(0.103125,0,0,0.104167,0,0)"/>
<path style="fill-rule:evenodd;fill:rgb(100%,100%,0%);fill-opacity:1;stroke-width:0.6;stroke-linecap:round;stroke-linejoin:round;stroke:rgb(0%,0%,0%);stroke-opacity:1;stroke-miterlimit:4;" d="M 260.30303 133.9875 L 251.212121 133.9875 L 251.212121 346.3125 L 260.189394 346.3125 Z M 260.30303 133.9875 " transform="matrix(0.103125,0,0,0.104167,0,0)"/>
<path style="fill-rule:evenodd;fill:rgb(100%,100%,0%);fill-opacity:1;stroke-width:0.6;stroke-linecap:round;stroke-linejoin:round;stroke:rgb(0%,0%,0%);stroke-opacity:1;stroke-miterlimit:4;" d="M 259.318182 132.7875 L 261.590909 132.7875 L 261.590909 347.5125 L 259.393939 347.5125 L 259.393939 132.7875 Z M 250.30303 132.7875 L 252.689394 132.7875 L 252.689394 347.5125 L 250.416667 347.5125 L 250.416667 132.7875 Z M 250.30303 132.7875 " transform="matrix(0.103125,0,0,0.104167,0,0)"/>
<path style="fill-rule:evenodd;fill:rgb(100%,100%,0%);fill-opacity:1;stroke-width:0.6;stroke-linecap:round;stroke-linejoin:round;stroke:rgb(0%,0%,0%);stroke-opacity:1;stroke-miterlimit:4;" d="M 361.590909 244.2 L 361.590909 236.4 L 355.189394 230.4 L 318.901515 220.8 L 266.704545 215.5125 L 203.712121 218.7 L 158.901515 229.3125 L 149.886364 235.9875 L 149.886364 243.9 L 172.80303 233.5875 L 227.19697 225.1125 L 279.507576 225.1125 L 317.916667 229.3125 L 344.507576 235.6875 Z M 361.590909 244.2 " transform="matrix(0.103125,0,0,0.104167,0,0)"/>
<path style="fill-rule:evenodd;fill:rgb(100%,100%,0%);fill-opacity:1;stroke-width:0.6;stroke-linecap:round;stroke-linejoin:round;stroke:rgb(0%,0%,0%);stroke-opacity:1;stroke-miterlimit:4;" d="M 255.984848 223.8 C 280.909091 223.8 305 226.0875 324.318182 229.8 C 344.090909 233.8125 357.992424 238.8 362.80303 244.3125 L 362.80303 247.0875 C 357.007576 240.1125 338.295455 235.0875 323.787879 232.0875 C 304.810606 228.4875 280.795455 226.0875 255.909091 226.0875 C 229.810606 226.0875 205.416667 228.7125 186.590909 232.3125 C 171.590909 235.3125 151.515152 241.3125 149.015152 247.0875 L 149.015152 244.2 C 150.30303 240.1875 165.30303 234.1875 186.287879 229.9125 C 205.189394 226.2 229.583333 223.8 255.909091 223.8 Z M 255.984848 214.6875 C 278.901515 214.65 301.742424 216.675 324.318182 220.6875 C 344.090909 224.7 357.992424 229.6875 362.80303 235.3125 L 362.80303 238.0125 C 357.007576 231.1125 338.295455 226.0125 323.787879 223.0875 C 304.810606 219.4125 280.795455 217.0875 255.909091 217.0875 C 232.689394 217.0125 209.507576 219.1125 186.704545 223.3125 C 172.19697 226.0125 151.287879 232.2 149.015152 238.0125 L 149.015152 235.2 C 150.416667 231.1875 165.606061 224.8875 186.287879 220.9125 C 205.30303 217.2 229.583333 214.6875 255.984848 214.6875 Z M 255.416667 168.4875 C 294.69697 168.3 329.015152 174 344.69697 181.9875 L 350.416667 192 C 336.818182 184.6125 299.810606 177 255.492424 178.0125 C 219.393939 178.3125 180.795455 181.9875 161.515152 192.4125 L 168.295455 181.0125 C 184.204545 172.6875 221.590909 168.4875 255.416667 168.4875 " transform="matrix(0.103125,0,0,0.104167,0,0)"/>
<path style="fill-rule:evenodd;fill:rgb(100%,100%,0%);fill-opacity:1;stroke-width:0.6;stroke-linecap:round;stroke-linejoin:round;stroke:rgb(0%,0%,0%);stroke-opacity:1;stroke-miterlimit:4;" d="M 255.984848 176.7 C 276.515152 176.3625 297.045455 177.7875 317.310606 181.0125 C 333.295455 184.0125 348.598485 188.4 350.795455 190.8 L 352.5 193.8 C 347.19697 190.3875 333.901515 186.4875 316.893939 183.3 C 299.886364 180.1125 278.181818 178.9875 255.909091 179.1 C 230.606061 178.9875 210.909091 180.3 194.090909 183.3 C 182.537879 184.9125 171.287879 188.4 160.795455 193.6125 L 162.5 190.5 C 168.484848 187.5 177.80303 183.7875 193.598485 180.9 C 211.098485 177.7125 230.984848 176.8125 255.984848 176.7 Z M 255.984848 167.7 C 277.386364 167.5125 298.598485 168.7125 315.113636 171.7125 C 325.795455 173.2875 336.136364 176.6625 345.681818 181.6875 L 348.181818 185.7 C 344.015152 181.0125 328.181818 176.5125 314.090909 174.1125 C 297.689394 171.1875 277.386364 170.1 255.984848 169.9125 C 236.060606 169.725 216.174242 171.1875 196.515152 174.3 C 186.212121 175.725 176.212121 178.8 166.893939 183.4125 L 169.090909 180.1125 C 174.886364 177.1125 184.318182 174.3 196.098485 172.0125 C 215.909091 168.8625 235.94697 167.4 255.984848 167.5875 Z M 308.409091 283.9875 C 291.060606 280.9875 273.484848 279.675 255.909091 280.0125 C 190.416667 280.8 169.318182 293.5125 166.704545 297.3 L 161.704545 289.3125 C 178.484848 277.3125 214.090909 270.4875 256.287879 271.0875 C 278.181818 271.5 297.083333 273 312.916667 276.1125 L 308.409091 284.1 " transform="matrix(0.103125,0,0,0.104167,0,0)"/>
<path style="fill-rule:evenodd;fill:rgb(100%,100%,0%);fill-opacity:1;stroke-width:0.6;stroke-linecap:round;stroke-linejoin:round;stroke:rgb(0%,0%,0%);stroke-opacity:1;stroke-miterlimit:4;" d="M 255.606061 278.8875 C 273.787879 279.1875 291.590909 279.9 308.901515 283.0875 L 307.689394 285.3 C 291.704545 282.3 274.507576 281.2875 255.681818 281.2875 C 231.401515 281.1 207.007576 283.3875 185.681818 289.5 C 179.015152 291.4125 167.916667 295.6875 166.704545 299.2875 L 165.492424 297.3 C 165.909091 295.0875 172.5 290.7 185.113636 287.2875 C 209.507576 280.3125 232.310606 279 255.606061 278.8875 Z M 256.401515 269.7 C 275.606061 269.6625 294.772727 271.35 313.712121 274.6875 L 312.386364 277.0125 C 293.939394 273.6 275.189394 271.9875 256.401515 272.1 C 232.19697 272.1 206.515152 273.9 183.106061 280.6875 C 175.606061 282.9 162.5 287.7 162.083333 291.4125 L 160.909091 289.2 C 161.098485 285.7875 172.386364 281.2875 182.613636 278.4 C 206.098485 271.5 231.893939 269.8125 256.401515 269.7 Z M 256.401515 269.7 " transform="matrix(0.103125,0,0,0.104167,0,0)"/>
<path style="fill-rule:evenodd;fill:rgb(100%,100%,0%);fill-opacity:1;stroke-width:0.6;stroke-linecap:round;stroke-linejoin:round;stroke:rgb(0%,0%,0%);stroke-opacity:1;stroke-miterlimit:4;" d="M 349.393939 290.5125 L 341.590909 302.8125 L 318.901515 282.7125 L 260.30303 243.1875 L 194.090909 206.8875 L 159.810606 195.1875 L 167.083333 181.6125 L 169.583333 180.3 L 190.909091 185.5875 L 261.287879 221.8875 L 301.893939 247.5 L 335.984848 271.9875 L 349.886364 288 Z M 349.393939 290.5125 " transform="matrix(0.103125,0,0,0.104167,0,0)"/>
<path style="fill-rule:evenodd;fill:rgb(100%,100%,0%);fill-opacity:1;stroke-width:0.6;stroke-linecap:round;stroke-linejoin:round;stroke:rgb(0%,0%,0%);stroke-opacity:1;stroke-miterlimit:4;" d="M 158.598485 195.4875 C 164.583333 191.5125 208.787879 211.0875 255.189394 239.1 C 301.287879 267.1125 345.492424 298.6875 341.515152 304.6125 L 340.189394 306.7125 L 339.583333 307.2 C 339.69697 307.0875 340.416667 306.1875 339.583333 304.0875 C 337.613636 297.6 306.212121 272.5875 254.318182 241.2 C 203.598485 211.0875 161.401515 192.9 157.310606 198.1125 Z M 350.984848 290.4 C 354.810606 282.7875 313.787879 251.8875 262.916667 221.8125 C 210.909091 192.3 173.295455 174.9 166.401515 180.1125 L 165 183 C 165 183.1125 165 182.8125 165.416667 182.5125 C 166.590909 181.5 168.712121 181.5 169.583333 181.5 C 181.401515 181.6875 215.113636 197.2125 262.386364 224.2875 C 283.181818 236.2875 350 279.3 349.69697 291.3 C 349.69697 292.3125 349.810606 292.5 349.393939 293.1 L 351.098485 290.5125 Z M 350.984848 290.4 " transform="matrix(0.103125,0,0,0.104167,0,0)"/>
<path style="fill-rule:nonzero;fill:rgb(100%,100%,100%);fill-opacity:1;stroke-width:0.7;stroke-linecap:butt;stroke-linejoin:miter;stroke:rgb(0%,0%,0%);stroke-opacity:1;stroke-miterlimit:4;" d="M 180.610231 211.007153 C 180.645742 226.686792 186.931234 241.698463 198.117279 252.702335 C 209.125767 263.917144 224.182538 270.245249 239.914023 270.315562 C 255.645508 270.315562 270.773302 264.022612 281.888324 252.913272 C 293.038857 241.839088 299.288837 226.79226 299.288837 211.112622 L 299.288837 131.905838 L 180.610231 131.694901 Z M 180.610231 211.007153 " transform="matrix(0.11,0,0,0.111111,0,2.78125)"/>
<path style="fill-rule:nonzero;fill:rgb(100%,0%,0%);fill-opacity:1;stroke-width:0.5;stroke-linecap:butt;stroke-linejoin:miter;stroke:rgb(0%,0%,0%);stroke-opacity:1;stroke-miterlimit:4;" d="M 182.811929 211.112622 C 182.84744 226.124293 188.884353 240.538311 199.608751 251.085153 C 210.262127 261.807776 224.715207 267.854632 239.807489 267.889788 C 254.86426 267.924944 269.31734 261.9484 280.006227 251.29609 C 290.659603 240.714092 296.696516 226.33523 296.696516 211.288402 L 296.696516 134.296455 L 182.989485 134.296455 L 182.989485 211.112622 M 274.004826 157.394039 L 274.004826 206.29623 L 273.898292 211.393871 C 273.969314 220.428999 270.347167 229.077409 263.884119 235.405514 C 257.527604 241.768776 248.89837 245.389858 239.914023 245.389858 C 230.503541 245.389858 222.193908 241.417214 216.01495 235.194578 C 209.622924 228.831316 206.036288 220.218062 206.000777 211.182934 L 206.000777 157.183103 Z M 274.004826 157.394039 " transform="matrix(0.11,0,0,0.111111,0,2.78125)"/>
<path style=" stroke:none;fill-rule:nonzero;fill:rgb(100%,100%,0%);fill-opacity:1;" d="M 20.921875 19.9375 C 20.933594 19.324219 21.363281 19.179688 21.363281 19.179688 C 21.375 19.179688 21.835938 19.335938 21.835938 19.949219 L 20.921875 19.949219 "/>
<path style="fill-rule:nonzero;fill:rgb(100%,100%,0%);fill-opacity:1;stroke-width:0.5;stroke-linecap:butt;stroke-linejoin:miter;stroke:rgb(0%,0%,0%);stroke-opacity:1;stroke-miterlimit:4;" d="M 186.789189 147.690945 L 186.114475 153.983894 L 190.304803 153.983894 C 190.304803 148.815941 194.317575 148.00735 194.317575 148.00735 C 194.388597 148.00735 198.294835 149.09719 198.401369 153.983894 L 202.591696 153.983894 L 201.810449 147.585476 L 186.789189 147.585476 Z M 185.794874 154.089362 L 202.804764 154.089362 C 203.088854 154.089362 203.408455 154.405767 203.408455 154.792485 C 203.408455 155.284671 203.088854 155.601076 202.804764 155.601076 L 185.794874 155.601076 C 185.510784 155.601076 185.191183 155.284671 185.191183 154.792485 C 185.191183 154.405767 185.510784 154.089362 185.901408 154.089362 Z M 185.794874 154.089362 " transform="matrix(0.11,0,0,0.111111,0,2.78125)"/>
<path style="fill-rule:nonzero;fill:rgb(100%,100%,0%);fill-opacity:1;stroke-width:0.5;stroke-linecap:butt;stroke-linejoin:miter;stroke:rgb(0%,0%,0%);stroke-opacity:1;stroke-miterlimit:4;" d="M 192.009343 153.983894 C 192.009343 150.714373 194.317575 149.800313 194.317575 149.800313 C 194.317575 149.800313 196.590295 150.784685 196.590295 153.983894 L 192.009343 153.983894 M 186.185498 144.983922 L 202.485163 144.983922 C 202.804764 144.983922 203.088854 145.405796 203.088854 145.792513 C 203.088854 146.108918 202.804764 146.390168 202.485163 146.390168 L 186.185498 146.390168 C 185.901408 146.390168 185.617318 146.108918 185.617318 145.687045 C 185.617318 145.405796 185.901408 145.08939 186.185498 145.08939 Z M 186.611633 146.495636 L 201.988005 146.495636 C 202.307606 146.495636 202.591696 146.812041 202.591696 147.198759 C 202.591696 147.585476 202.307606 147.901882 201.988005 147.901882 L 186.505099 147.901882 C 186.114475 147.901882 185.901408 147.585476 185.901408 147.198759 C 185.901408 146.812041 186.114475 146.495636 186.505099 146.495636 Z M 191.583208 135.913638 L 192.790591 135.913638 L 192.790591 136.687073 L 193.713883 136.687073 L 193.713883 135.913638 L 194.992288 135.913638 L 194.992288 136.792541 L 195.915581 136.792541 L 195.915581 135.808169 L 197.087452 135.808169 L 197.087452 137.812069 C 197.087452 138.198787 196.909896 138.409724 196.590295 138.409724 L 192.186899 138.409724 C 191.902809 138.409724 191.583208 138.198787 191.583208 137.917538 Z M 196.199671 138.585504 L 196.483761 144.983922 L 192.186899 144.983922 L 192.506501 138.515192 L 196.199671 138.515192 " transform="matrix(0.11,0,0,0.111111,0,2.78125)"/>
<path style="fill-rule:nonzero;fill:rgb(100%,100%,0%);fill-opacity:1;stroke-width:0.5;stroke-linecap:butt;stroke-linejoin:miter;stroke:rgb(0%,0%,0%);stroke-opacity:1;stroke-miterlimit:4;" d="M 191.015028 141.608932 L 191.015028 144.983922 L 187.002257 144.983922 L 187.002257 141.608932 Z M 191.015028 141.608932 " transform="matrix(0.11,0,0,0.111111,0,2.78125)"/>
<path style="fill-rule:nonzero;fill:rgb(100%,100%,0%);fill-opacity:1;stroke-width:0.5;stroke-linecap:butt;stroke-linejoin:miter;stroke:rgb(0%,0%,0%);stroke-opacity:1;stroke-miterlimit:4;" d="M 190.997381 141.608932 L 190.997381 144.983922 L 186.98461 144.983922 L 186.98461 141.608932 Z M 190.997381 141.608932 " transform="matrix(0.11,0,0,0.111111,1.166004,2.78125)"/>
<path style="fill-rule:nonzero;fill:rgb(100%,100%,0%);fill-opacity:1;stroke-width:0.5;stroke-linecap:butt;stroke-linejoin:miter;stroke:rgb(0%,0%,0%);stroke-opacity:1;stroke-miterlimit:4;" d="M 186.292031 139.007378 L 187.499414 139.007378 L 187.499414 139.99175 L 188.387195 139.99175 L 188.387195 139.007378 L 189.594578 139.007378 L 189.594578 139.99175 L 190.482359 139.99175 L 190.482359 139.007378 L 191.689742 139.007378 L 191.689742 141.011278 C 191.689742 141.397996 191.512186 141.608932 191.192584 141.608932 L 186.895723 141.608932 C 186.576121 141.608932 186.292031 141.327683 186.292031 141.011278 Z M 186.292031 139.007378 " transform="matrix(0.11,0,0,0.111111,0,2.78125)"/>
<path style="fill-rule:nonzero;fill:rgb(100%,100%,0%);fill-opacity:1;stroke-width:0.5;stroke-linecap:butt;stroke-linejoin:miter;stroke:rgb(0%,0%,0%);stroke-opacity:1;stroke-miterlimit:4;" d="M 186.309896 139.007378 L 187.517279 139.007378 L 187.517279 139.99175 L 188.40506 139.99175 L 188.40506 139.007378 L 189.612443 139.007378 L 189.612443 139.99175 L 190.500224 139.99175 L 190.500224 139.007378 L 191.707606 139.007378 L 191.707606 141.011278 C 191.707606 141.397996 191.494539 141.608932 191.210449 141.608932 L 186.913587 141.608932 C 186.558475 141.608932 186.309896 141.327683 186.309896 141.011278 Z M 186.309896 139.007378 " transform="matrix(0.11,0,0,0.111111,1.166004,2.78125)"/>
<path style=" stroke:none;fill-rule:nonzero;fill:rgb(0%,0%,0%);fill-opacity:1;" d="M 21.328125 18.402344 C 21.328125 18.335938 21.429688 18.335938 21.429688 18.402344 L 21.429688 18.582031 L 21.328125 18.582031 L 21.328125 18.402344 "/>
<path style=" stroke:none;fill-rule:nonzero;fill:rgb(0%,0%,0%);fill-opacity:1;" d="M 20.746094 18.648438 C 20.746094 18.582031 20.835938 18.582031 20.835938 18.648438 L 20.835938 18.78125 L 20.746094 18.78125 L 20.746094 18.648438 "/>
<path style=" stroke:none;fill-rule:nonzero;fill:rgb(0%,0%,0%);fill-opacity:1;" d="M 21.910156 18.648438 C 21.910156 18.582031 22 18.582031 22 18.648438 L 22 18.78125 L 21.910156 18.78125 L 21.910156 18.648438 "/>
<path style=" stroke:none;fill-rule:nonzero;fill:rgb(100%,100%,0%);fill-opacity:1;" d="M 20.921875 25.082031 C 20.933594 24.46875 21.363281 24.324219 21.363281 24.324219 C 21.375 24.324219 21.835938 24.480469 21.835938 25.09375 L 20.921875 25.09375 "/>
<path style="fill-rule:nonzero;fill:rgb(100%,100%,0%);fill-opacity:1;stroke-width:0.5;stroke-linecap:butt;stroke-linejoin:miter;stroke:rgb(0%,0%,0%);stroke-opacity:1;stroke-miterlimit:4;" d="M 186.789189 147.691581 L 186.114475 153.98453 L 190.304803 153.98453 C 190.304803 148.816578 194.317575 148.007987 194.317575 148.007987 C 194.388597 148.007987 198.294835 149.097827 198.401369 153.98453 L 202.591696 153.98453 L 201.810449 147.586113 L 186.789189 147.586113 Z M 185.794874 154.089999 L 202.804764 154.089999 C 203.088854 154.089999 203.408455 154.406404 203.408455 154.793122 C 203.408455 155.285308 203.088854 155.601713 202.804764 155.601713 L 185.794874 155.601713 C 185.510784 155.601713 185.191183 155.285308 185.191183 154.793122 C 185.191183 154.406404 185.510784 154.089999 185.901408 154.089999 Z M 185.794874 154.089999 " transform="matrix(0.11,0,0,0.111111,0,7.925711)"/>
<path style="fill-rule:nonzero;fill:rgb(100%,100%,0%);fill-opacity:1;stroke-width:0.5;stroke-linecap:butt;stroke-linejoin:miter;stroke:rgb(0%,0%,0%);stroke-opacity:1;stroke-miterlimit:4;" d="M 192.009343 153.98453 C 192.009343 150.715009 194.317575 149.80095 194.317575 149.80095 C 194.317575 149.80095 196.590295 150.785322 196.590295 153.98453 L 192.009343 153.98453 M 186.185498 144.984558 L 202.485163 144.984558 C 202.804764 144.984558 203.088854 145.406432 203.088854 145.79315 C 203.088854 146.109555 202.804764 146.390804 202.485163 146.390804 L 186.185498 146.390804 C 185.901408 146.390804 185.617318 146.109555 185.617318 145.687681 C 185.617318 145.406432 185.901408 145.090027 186.185498 145.090027 Z M 186.611633 146.496273 L 201.988005 146.496273 C 202.307606 146.496273 202.591696 146.812678 202.591696 147.199395 C 202.591696 147.586113 202.307606 147.902518 201.988005 147.902518 L 186.505099 147.902518 C 186.114475 147.902518 185.901408 147.586113 185.901408 147.199395 C 185.901408 146.812678 186.114475 146.496273 186.505099 146.496273 Z M 191.583208 135.914274 L 192.790591 135.914274 L 192.790591 136.687709 L 193.713883 136.687709 L 193.713883 135.914274 L 194.992288 135.914274 L 194.992288 136.793178 L 195.915581 136.793178 L 195.915581 135.808806 L 197.087452 135.808806 L 197.087452 137.812706 C 197.087452 138.199423 196.909896 138.41036 196.590295 138.41036 L 192.186899 138.41036 C 191.902809 138.41036 191.583208 138.199423 191.583208 137.883018 Z M 196.199671 138.586141 L 196.483761 144.984558 L 192.186899 144.984558 L 192.506501 138.515829 L 196.199671 138.515829 " transform="matrix(0.11,0,0,0.111111,0,7.925711)"/>
<path style="fill-rule:nonzero;fill:rgb(100%,100%,0%);fill-opacity:1;stroke-width:0.5;stroke-linecap:butt;stroke-linejoin:miter;stroke:rgb(0%,0%,0%);stroke-opacity:1;stroke-miterlimit:4;" d="M 191.015028 141.609569 L 191.015028 144.984558 L 187.002257 144.984558 L 187.002257 141.609569 Z M 191.015028 141.609569 " transform="matrix(0.11,0,0,0.111111,0,7.925711)"/>
<path style="fill-rule:nonzero;fill:rgb(100%,100%,0%);fill-opacity:1;stroke-width:0.5;stroke-linecap:butt;stroke-linejoin:miter;stroke:rgb(0%,0%,0%);stroke-opacity:1;stroke-miterlimit:4;" d="M 190.997381 141.609569 L 190.997381 144.984558 L 186.98461 144.984558 L 186.98461 141.609569 Z M 190.997381 141.609569 " transform="matrix(0.11,0,0,0.111111,1.166004,7.925711)"/>
<path style="fill-rule:nonzero;fill:rgb(100%,100%,0%);fill-opacity:1;stroke-width:0.5;stroke-linecap:butt;stroke-linejoin:miter;stroke:rgb(0%,0%,0%);stroke-opacity:1;stroke-miterlimit:4;" d="M 186.292031 139.008015 L 187.499414 139.008015 L 187.499414 139.992387 L 188.387195 139.992387 L 188.387195 139.008015 L 189.594578 139.008015 L 189.594578 139.992387 L 190.482359 139.992387 L 190.482359 139.008015 L 191.689742 139.008015 L 191.689742 141.011915 C 191.689742 141.398632 191.512186 141.609569 191.192584 141.609569 L 186.895723 141.609569 C 186.576121 141.609569 186.292031 141.32832 186.292031 141.011915 Z M 186.292031 139.008015 " transform="matrix(0.11,0,0,0.111111,0,7.925711)"/>
<path style="fill-rule:nonzero;fill:rgb(100%,100%,0%);fill-opacity:1;stroke-width:0.5;stroke-linecap:butt;stroke-linejoin:miter;stroke:rgb(0%,0%,0%);stroke-opacity:1;stroke-miterlimit:4;" d="M 186.309896 139.008015 L 187.517279 139.008015 L 187.517279 139.992387 L 188.40506 139.992387 L 188.40506 139.008015 L 189.612443 139.008015 L 189.612443 139.992387 L 190.500224 139.992387 L 190.500224 139.008015 L 191.707606 139.008015 L 191.707606 141.011915 C 191.707606 141.398632 191.494539 141.609569 191.210449 141.609569 L 186.913587 141.609569 C 186.558475 141.609569 186.309896 141.32832 186.309896 141.011915 Z M 186.309896 139.008015 " transform="matrix(0.11,0,0,0.111111,1.166004,7.925711)"/>
<path style=" stroke:none;fill-rule:nonzero;fill:rgb(0%,0%,0%);fill-opacity:1;" d="M 21.328125 23.546875 C 21.328125 23.480469 21.429688 23.480469 21.429688 23.546875 L 21.429688 23.726562 L 21.328125 23.726562 L 21.328125 23.546875 "/>
<path style=" stroke:none;fill-rule:nonzero;fill:rgb(0%,0%,0%);fill-opacity:1;" d="M 20.746094 23.792969 C 20.746094 23.726562 20.835938 23.726562 20.835938 23.792969 L 20.835938 23.925781 L 20.746094 23.925781 L 20.746094 23.792969 "/>
<path style=" stroke:none;fill-rule:nonzero;fill:rgb(0%,0%,0%);fill-opacity:1;" d="M 21.910156 23.792969 C 21.910156 23.726562 22 23.726562 22 23.792969 L 22 23.925781 L 21.910156 23.925781 L 21.910156 23.792969 "/>
<path style=" stroke:none;fill-rule:nonzero;fill:rgb(100%,100%,0%);fill-opacity:1;" d="M 22.90625 30.441406 C 22.484375 30.003906 22.6875 29.59375 22.6875 29.59375 C 22.695312 29.585938 23.128906 29.367188 23.558594 29.796875 L 22.914062 30.449219 "/>
<path style="fill-rule:nonzero;fill:rgb(100%,100%,0%);fill-opacity:1;stroke-width:0.5;stroke-linecap:butt;stroke-linejoin:miter;stroke:rgb(0%,0%,0%);stroke-opacity:1;stroke-miterlimit:4;" d="M 186.795739 147.708838 L 186.105845 153.999097 L 190.303098 153.984871 C 190.295124 148.787995 194.3163 147.997745 194.3163 147.997745 C 194.416236 147.998596 198.290421 149.105929 198.397872 154.003836 L 202.595125 153.989611 L 201.810842 147.611844 L 186.795586 147.608899 Z M 185.806189 154.096483 L 202.795151 154.091253 C 203.09496 154.093806 203.39523 154.396179 203.395843 154.795938 C 203.39661 155.295638 203.097261 155.592905 202.797451 155.590352 L 185.808489 155.595582 C 185.50868 155.593029 185.208411 155.290656 185.207644 154.790957 C 185.207031 154.391197 185.50638 154.09393 185.906126 154.097334 Z M 185.806189 154.096483 " transform="matrix(0.07751,-0.0788414,0.078053,0.0782929,-3.886567,33.350186)"/>
<path style="fill-rule:nonzero;fill:rgb(100%,100%,0%);fill-opacity:1;stroke-width:0.5;stroke-linecap:butt;stroke-linejoin:miter;stroke:rgb(0%,0%,0%);stroke-opacity:1;stroke-miterlimit:4;" d="M 192.002017 153.999339 C 191.996957 150.701321 194.31906 149.796664 194.31906 149.796664 C 194.31906 149.796664 196.594109 150.79044 196.599016 153.988517 L 192.002017 153.999339 M 186.19198 145.005354 L 202.481387 144.994166 C 202.781196 144.996719 203.081619 145.399032 203.082232 145.798792 C 203.082692 146.098611 202.783343 146.395878 202.483534 146.393325 L 186.194127 146.404513 C 185.894318 146.40196 185.594048 146.099587 185.593435 145.699827 C 185.592975 145.400007 185.892324 145.102741 186.192133 145.105294 Z M 186.594026 146.507857 L 202.009028 146.514207 C 202.283814 146.491563 202.584084 146.793936 202.584697 147.193695 C 202.585311 147.593455 202.285961 147.890722 202.011174 147.913366 L 186.496236 147.906165 C 186.096491 147.902761 185.896158 147.601239 185.895544 147.201479 C 185.894931 146.80172 186.094344 146.503602 186.49409 146.507006 Z M 191.599461 135.882035 L 192.798698 135.892248 L 192.799925 136.691767 L 193.699353 136.699427 L 193.698126 135.899907 L 194.997299 135.910971 L 194.99868 136.81043 L 195.898107 136.81809 L 195.896574 135.818691 L 197.120757 135.804131 L 197.098801 137.777732 C 197.099415 138.177492 196.899849 138.375669 196.600116 138.423086 L 192.202913 138.38564 C 191.903104 138.383087 191.602988 138.180654 191.602528 137.880834 Z M 196.200677 138.619562 L 196.485278 144.993073 L 192.188089 145.006447 L 192.502876 138.488133 L 196.200524 138.519622 " transform="matrix(0.07751,-0.0788414,0.078053,0.0782929,-3.886567,33.350186)"/>
<path style="fill-rule:nonzero;fill:rgb(100%,100%,0%);fill-opacity:1;stroke-width:0.5;stroke-linecap:butt;stroke-linejoin:miter;stroke:rgb(0%,0%,0%);stroke-opacity:1;stroke-miterlimit:4;" d="M 190.983638 141.598277 L 190.988852 144.996235 L 186.991471 145.012162 L 187.011203 141.589433 Z M 190.983638 141.598277 " transform="matrix(0.07751,-0.0788414,0.078053,0.0782929,-3.886567,33.350186)"/>
<path style="fill-rule:nonzero;fill:rgb(100%,100%,0%);fill-opacity:1;stroke-width:0.5;stroke-linecap:butt;stroke-linejoin:miter;stroke:rgb(0%,0%,0%);stroke-opacity:1;stroke-miterlimit:4;" d="M 191.001768 141.613747 L 191.006982 145.011704 L 186.984579 145.002434 L 187.004311 141.579704 Z M 191.001768 141.613747 " transform="matrix(0.07751,-0.0788414,0.078053,0.0782929,-3.064961,32.514467)"/>
<path style="fill-rule:nonzero;fill:rgb(100%,100%,0%);fill-opacity:1;stroke-width:0.5;stroke-linecap:butt;stroke-linejoin:miter;stroke:rgb(0%,0%,0%);stroke-opacity:1;stroke-miterlimit:4;" d="M 186.307661 138.985037 L 187.506898 138.99525 L 187.508432 139.994649 L 188.40786 140.002309 L 188.406326 139.002909 L 189.605563 139.013122 L 189.607097 140.012521 L 190.481502 139.994983 L 190.479969 138.995584 L 191.704151 138.981024 L 191.682273 141.004595 C 191.682886 141.404355 191.48332 141.602532 191.183511 141.599979 L 186.911267 141.588582 C 186.561489 141.585603 186.311265 141.333625 186.285782 141.008608 Z M 186.307661 138.985037 " transform="matrix(0.07751,-0.0788414,0.078053,0.0782929,-3.886567,33.350186)"/>
<path style="fill-rule:nonzero;fill:rgb(100%,100%,0%);fill-opacity:1;stroke-width:0.5;stroke-linecap:butt;stroke-linejoin:miter;stroke:rgb(0%,0%,0%);stroke-opacity:1;stroke-miterlimit:4;" d="M 186.275823 139.000081 L 187.500006 138.985521 L 187.501539 139.984921 L 188.400967 139.99258 L 188.399434 138.993181 L 189.598671 139.003394 L 189.600204 140.002793 L 190.499632 140.010452 L 190.498098 139.011053 L 191.697336 139.021266 L 191.700403 141.020064 C 191.701016 141.419824 191.50145 141.618002 191.201641 141.615449 L 186.879429 141.603626 C 186.579619 141.601072 186.304372 141.323897 186.27889 140.99888 Z M 186.275823 139.000081 " transform="matrix(0.07751,-0.0788414,0.078053,0.0782929,-3.064961,32.514467)"/>
<path style=" stroke:none;fill-rule:nonzero;fill:rgb(0%,0%,0%);fill-opacity:1;" d="M 22.117188 29.070312 C 22.070312 29.023438 22.140625 28.953125 22.1875 29 L 22.3125 29.125 L 22.242188 29.195312 L 22.117188 29.070312 "/>
<path style=" stroke:none;fill-rule:nonzero;fill:rgb(0%,0%,0%);fill-opacity:1;" d="M 21.878906 29.660156 C 21.832031 29.613281 21.894531 29.550781 21.941406 29.597656 L 22.035156 29.691406 L 21.972656 29.753906 L 21.878906 29.660156 "/>
<path style=" stroke:none;fill-rule:nonzero;fill:rgb(0%,0%,0%);fill-opacity:1;" d="M 22.699219 28.824219 C 22.652344 28.777344 22.714844 28.714844 22.761719 28.761719 L 22.855469 28.855469 L 22.792969 28.917969 L 22.699219 28.824219 "/>
<path style=" stroke:none;fill-rule:nonzero;fill:rgb(100%,100%,0%);fill-opacity:1;" d="M 25.949219 19.9375 C 25.960938 19.324219 26.390625 19.179688 26.390625 19.179688 C 26.398438 19.179688 26.863281 19.335938 26.863281 19.949219 L 25.949219 19.949219 "/>
<path style="fill-rule:nonzero;fill:rgb(100%,100%,0%);fill-opacity:1;stroke-width:0.5;stroke-linecap:butt;stroke-linejoin:miter;stroke:rgb(0%,0%,0%);stroke-opacity:1;stroke-miterlimit:4;" d="M 186.792171 147.690945 L 186.117457 153.983894 L 190.307785 153.983894 C 190.307785 148.815941 194.285046 148.00735 194.285046 148.00735 C 194.391579 148.00735 198.297817 149.09719 198.404351 153.983894 L 202.594679 153.983894 L 201.813431 147.585476 L 186.792171 147.585476 Z M 185.797856 154.089362 L 202.807746 154.089362 C 203.091836 154.089362 203.411437 154.405767 203.411437 154.792485 C 203.411437 155.284671 203.091836 155.601076 202.807746 155.601076 L 185.797856 155.601076 C 185.513766 155.601076 185.194165 155.284671 185.194165 154.792485 C 185.194165 154.405767 185.513766 154.089362 185.90439 154.089362 Z M 185.797856 154.089362 " transform="matrix(0.11,0,0,0.111111,5.027016,2.78125)"/>
<path style="fill-rule:nonzero;fill:rgb(100%,100%,0%);fill-opacity:1;stroke-width:0.5;stroke-linecap:butt;stroke-linejoin:miter;stroke:rgb(0%,0%,0%);stroke-opacity:1;stroke-miterlimit:4;" d="M 192.012325 153.983894 C 192.012325 150.714373 194.285046 149.800313 194.285046 149.800313 C 194.285046 149.800313 196.593277 150.784685 196.593277 153.983894 L 192.012325 153.983894 M 186.18848 144.983922 L 202.488145 144.983922 C 202.807746 144.983922 203.091836 145.405796 203.091836 145.792513 C 203.091836 146.108918 202.807746 146.390168 202.488145 146.390168 L 186.18848 146.390168 C 185.90439 146.390168 185.584789 146.108918 185.584789 145.687045 C 185.584789 145.405796 185.90439 145.08939 186.18848 145.08939 Z M 186.614615 146.495636 L 201.990987 146.495636 C 202.310589 146.495636 202.594679 146.812041 202.594679 147.198759 C 202.594679 147.585476 202.310589 147.901882 201.990987 147.901882 L 186.508081 147.901882 C 186.117457 147.901882 185.90439 147.585476 185.90439 147.198759 C 185.90439 146.812041 186.117457 146.495636 186.508081 146.495636 Z M 191.58619 135.913638 L 192.793573 135.913638 L 192.793573 136.687073 L 193.716865 136.687073 L 193.716865 135.913638 L 194.995271 135.913638 L 194.995271 136.792541 L 195.883052 136.792541 L 195.883052 135.808169 L 197.090434 135.808169 L 197.090434 137.812069 C 197.090434 138.198787 196.912878 138.409724 196.593277 138.409724 L 192.189882 138.409724 C 191.905792 138.409724 191.58619 138.198787 191.58619 137.917538 Z M 196.202653 138.585504 L 196.486743 144.983922 L 192.189882 144.983922 L 192.509483 138.515192 L 196.202653 138.515192 " transform="matrix(0.11,0,0,0.111111,5.027016,2.78125)"/>
<path style="fill-rule:nonzero;fill:rgb(100%,100%,0%);fill-opacity:1;stroke-width:0.5;stroke-linecap:butt;stroke-linejoin:miter;stroke:rgb(0%,0%,0%);stroke-opacity:1;stroke-miterlimit:4;" d="M 190.982499 141.608932 L 190.982499 144.983922 L 187.005239 144.983922 L 187.005239 141.608932 Z M 190.982499 141.608932 " transform="matrix(0.11,0,0,0.111111,5.027016,2.78125)"/>
<path style="fill-rule:nonzero;fill:rgb(100%,100%,0%);fill-opacity:1;stroke-width:0.5;stroke-linecap:butt;stroke-linejoin:miter;stroke:rgb(0%,0%,0%);stroke-opacity:1;stroke-miterlimit:4;" d="M 191.000364 141.608932 L 191.000364 144.983922 L 186.987592 144.983922 L 186.987592 141.608932 Z M 191.000364 141.608932 " transform="matrix(0.11,0,0,0.111111,6.193019,2.78125)"/>
<path style="fill-rule:nonzero;fill:rgb(100%,100%,0%);fill-opacity:1;stroke-width:0.5;stroke-linecap:butt;stroke-linejoin:miter;stroke:rgb(0%,0%,0%);stroke-opacity:1;stroke-miterlimit:4;" d="M 186.295014 139.007378 L 187.502396 139.007378 L 187.502396 139.99175 L 188.390178 139.99175 L 188.390178 139.007378 L 189.59756 139.007378 L 189.59756 139.99175 L 190.485341 139.99175 L 190.485341 139.007378 L 191.692724 139.007378 L 191.692724 141.011278 C 191.692724 141.397996 191.515168 141.608932 191.195567 141.608932 L 186.898705 141.608932 C 186.579104 141.608932 186.295014 141.327683 186.295014 141.011278 Z M 186.295014 139.007378 " transform="matrix(0.11,0,0,0.111111,5.027016,2.78125)"/>
<path style="fill-rule:nonzero;fill:rgb(100%,100%,0%);fill-opacity:1;stroke-width:0.5;stroke-linecap:butt;stroke-linejoin:miter;stroke:rgb(0%,0%,0%);stroke-opacity:1;stroke-miterlimit:4;" d="M 186.312878 139.007378 L 187.48475 139.007378 L 187.48475 139.99175 L 188.408042 139.99175 L 188.408042 139.007378 L 189.615425 139.007378 L 189.615425 139.99175 L 190.503206 139.99175 L 190.503206 139.007378 L 191.710589 139.007378 L 191.710589 141.011278 C 191.710589 141.397996 191.497521 141.608932 191.213431 141.608932 L 186.916569 141.608932 C 186.561457 141.608932 186.312878 141.327683 186.312878 141.011278 Z M 186.312878 139.007378 " transform="matrix(0.11,0,0,0.111111,6.193019,2.78125)"/>
<path style=" stroke:none;fill-rule:nonzero;fill:rgb(0%,0%,0%);fill-opacity:1;" d="M 26.355469 18.402344 C 26.355469 18.335938 26.457031 18.335938 26.457031 18.402344 L 26.457031 18.582031 L 26.355469 18.582031 L 26.355469 18.402344 "/>
<path style=" stroke:none;fill-rule:nonzero;fill:rgb(0%,0%,0%);fill-opacity:1;" d="M 25.773438 18.648438 C 25.773438 18.582031 25.859375 18.582031 25.859375 18.648438 L 25.859375 18.78125 L 25.773438 18.78125 L 25.773438 18.648438 "/>
<path style=" stroke:none;fill-rule:nonzero;fill:rgb(0%,0%,0%);fill-opacity:1;" d="M 26.9375 18.648438 C 26.9375 18.582031 27.027344 18.582031 27.027344 18.648438 L 27.027344 18.78125 L 26.9375 18.78125 L 26.9375 18.648438 "/>
<path style=" stroke:none;fill-rule:nonzero;fill:rgb(100%,100%,0%);fill-opacity:1;" d="M 31.855469 19.9375 C 31.84375 19.324219 31.417969 19.179688 31.417969 19.179688 C 31.40625 19.179688 30.941406 19.335938 30.941406 19.949219 L 31.855469 19.949219 "/>
<path style="fill-rule:nonzero;fill:rgb(100%,100%,0%);fill-opacity:1;stroke-width:0.5;stroke-linecap:butt;stroke-linejoin:miter;stroke:rgb(0%,0%,0%);stroke-opacity:1;stroke-miterlimit:4;" d="M 186.796654 147.690945 L 186.086429 153.983894 L 190.312268 153.983894 C 190.312268 148.815941 194.289529 148.00735 194.289529 148.00735 C 194.396062 148.00735 198.3023 149.09719 198.408834 153.983894 L 202.599162 153.983894 L 201.782403 147.585476 L 186.796654 147.585476 Z M 185.802339 154.089362 L 202.812229 154.089362 C 203.096319 154.089362 203.415921 154.405767 203.415921 154.792485 C 203.415921 155.284671 203.096319 155.601076 202.812229 155.601076 L 185.802339 155.601076 C 185.482738 155.601076 185.198648 155.284671 185.198648 154.792485 C 185.198648 154.405767 185.482738 154.089362 185.908873 154.089362 Z M 185.802339 154.089362 " transform="matrix(-0.11,0,0,0.111111,52.778165,2.78125)"/>
<path style="fill-rule:nonzero;fill:rgb(100%,100%,0%);fill-opacity:1;stroke-width:0.5;stroke-linecap:butt;stroke-linejoin:miter;stroke:rgb(0%,0%,0%);stroke-opacity:1;stroke-miterlimit:4;" d="M 192.016808 153.983894 C 192.016808 150.714373 194.289529 149.800313 194.289529 149.800313 C 194.289529 149.800313 196.59776 150.784685 196.59776 153.983894 L 192.016808 153.983894 M 186.192963 144.983922 L 202.492628 144.983922 C 202.812229 144.983922 203.096319 145.405796 203.096319 145.792513 C 203.096319 146.108918 202.812229 146.390168 202.492628 146.390168 L 186.192963 146.390168 C 185.908873 146.390168 185.589272 146.108918 185.589272 145.687045 C 185.589272 145.405796 185.908873 145.08939 186.192963 145.08939 Z M 186.583587 146.495636 L 201.99547 146.495636 C 202.315072 146.495636 202.599162 146.812041 202.599162 147.198759 C 202.599162 147.585476 202.315072 147.901882 201.99547 147.901882 L 186.512564 147.901882 C 186.086429 147.901882 185.908873 147.585476 185.908873 147.198759 C 185.908873 146.812041 186.086429 146.495636 186.512564 146.495636 Z M 191.590673 135.913638 L 192.798056 135.913638 L 192.798056 136.687073 L 193.685837 136.687073 L 193.685837 135.913638 L 194.999754 135.913638 L 194.999754 136.792541 L 195.887535 136.792541 L 195.887535 135.808169 L 197.094918 135.808169 L 197.094918 137.812069 C 197.094918 138.198787 196.917361 138.409724 196.59776 138.409724 L 192.194365 138.409724 C 191.910275 138.409724 191.590673 138.198787 191.590673 137.917538 Z M 196.207136 138.585504 L 196.491226 144.983922 L 192.194365 144.983922 L 192.513966 138.515192 L 196.207136 138.515192 " transform="matrix(-0.11,0,0,0.111111,52.778165,2.78125)"/>
<path style="fill-rule:nonzero;fill:rgb(100%,100%,0%);fill-opacity:1;stroke-width:0.5;stroke-linecap:butt;stroke-linejoin:miter;stroke:rgb(0%,0%,0%);stroke-opacity:1;stroke-miterlimit:4;" d="M 190.986982 141.608932 L 190.986982 144.983922 L 187.009722 144.983922 L 187.009722 141.608932 Z M 190.986982 141.608932 " transform="matrix(-0.11,0,0,0.111111,52.778165,2.78125)"/>
<path style="fill-rule:nonzero;fill:rgb(100%,100%,0%);fill-opacity:1;stroke-width:0.5;stroke-linecap:butt;stroke-linejoin:miter;stroke:rgb(0%,0%,0%);stroke-opacity:1;stroke-miterlimit:4;" d="M 191.004847 141.608932 L 191.004847 144.983922 L 186.992075 144.983922 L 186.992075 141.608932 Z M 191.004847 141.608932 " transform="matrix(-0.11,0,0,0.111111,51.612161,2.78125)"/>
<path style="fill-rule:nonzero;fill:rgb(100%,100%,0%);fill-opacity:1;stroke-width:0.5;stroke-linecap:butt;stroke-linejoin:miter;stroke:rgb(0%,0%,0%);stroke-opacity:1;stroke-miterlimit:4;" d="M 186.299497 139.007378 L 187.506879 139.007378 L 187.506879 139.99175 L 188.394661 139.99175 L 188.394661 139.007378 L 189.602043 139.007378 L 189.602043 139.99175 L 190.489825 139.99175 L 190.489825 139.007378 L 191.697207 139.007378 L 191.697207 141.011278 C 191.697207 141.397996 191.48414 141.608932 191.20005 141.608932 L 186.903188 141.608932 C 186.583587 141.608932 186.299497 141.327683 186.299497 141.011278 Z M 186.299497 139.007378 " transform="matrix(-0.11,0,0,0.111111,52.778165,2.78125)"/>
<path style="fill-rule:nonzero;fill:rgb(100%,100%,0%);fill-opacity:1;stroke-width:0.5;stroke-linecap:butt;stroke-linejoin:miter;stroke:rgb(0%,0%,0%);stroke-opacity:1;stroke-miterlimit:4;" d="M 186.317361 139.007378 L 187.489233 139.007378 L 187.489233 139.99175 L 188.412525 139.99175 L 188.412525 139.007378 L 189.584397 139.007378 L 189.584397 139.99175 L 190.507689 139.99175 L 190.507689 139.007378 L 191.715072 139.007378 L 191.715072 141.011278 C 191.715072 141.397996 191.502004 141.608932 191.182403 141.608932 L 186.885541 141.608932 C 186.56594 141.608932 186.317361 141.327683 186.317361 141.011278 Z M 186.317361 139.007378 " transform="matrix(-0.11,0,0,0.111111,51.612161,2.78125)"/>
<path style=" stroke:none;fill-rule:nonzero;fill:rgb(0%,0%,0%);fill-opacity:1;" d="M 31.449219 18.402344 C 31.449219 18.335938 31.351562 18.335938 31.351562 18.402344 L 31.351562 18.582031 L 31.449219 18.582031 L 31.449219 18.402344 "/>
<path style=" stroke:none;fill-rule:nonzero;fill:rgb(0%,0%,0%);fill-opacity:1;" d="M 32.03125 18.648438 C 32.03125 18.582031 31.945312 18.582031 31.945312 18.648438 L 31.945312 18.78125 L 32.03125 18.78125 L 32.03125 18.648438 "/>
<path style=" stroke:none;fill-rule:nonzero;fill:rgb(0%,0%,0%);fill-opacity:1;" d="M 30.867188 18.648438 C 30.867188 18.582031 30.777344 18.582031 30.777344 18.648438 L 30.777344 18.78125 L 30.867188 18.78125 L 30.867188 18.648438 "/>
<path style=" stroke:none;fill-rule:nonzero;fill:rgb(100%,100%,0%);fill-opacity:1;" d="M 31.855469 25.082031 C 31.84375 24.46875 31.417969 24.324219 31.417969 24.324219 C 31.40625 24.324219 30.941406 24.480469 30.941406 25.09375 L 31.855469 25.09375 "/>
<path style="fill-rule:nonzero;fill:rgb(100%,100%,0%);fill-opacity:1;stroke-width:0.5;stroke-linecap:butt;stroke-linejoin:miter;stroke:rgb(0%,0%,0%);stroke-opacity:1;stroke-miterlimit:4;" d="M 186.796654 147.691581 L 186.086429 153.98453 L 190.312268 153.98453 C 190.312268 148.816578 194.289529 148.007987 194.289529 148.007987 C 194.396062 148.007987 198.3023 149.097827 198.408834 153.98453 L 202.599162 153.98453 L 201.782403 147.586113 L 186.796654 147.586113 Z M 185.802339 154.089999 L 202.812229 154.089999 C 203.096319 154.089999 203.415921 154.406404 203.415921 154.793122 C 203.415921 155.285308 203.096319 155.601713 202.812229 155.601713 L 185.802339 155.601713 C 185.482738 155.601713 185.198648 155.285308 185.198648 154.793122 C 185.198648 154.406404 185.482738 154.089999 185.908873 154.089999 Z M 185.802339 154.089999 " transform="matrix(-0.11,0,0,0.111111,52.778165,7.925711)"/>
<path style="fill-rule:nonzero;fill:rgb(100%,100%,0%);fill-opacity:1;stroke-width:0.5;stroke-linecap:butt;stroke-linejoin:miter;stroke:rgb(0%,0%,0%);stroke-opacity:1;stroke-miterlimit:4;" d="M 192.016808 153.98453 C 192.016808 150.715009 194.289529 149.80095 194.289529 149.80095 C 194.289529 149.80095 196.59776 150.785322 196.59776 153.98453 L 192.016808 153.98453 M 186.192963 144.984558 L 202.492628 144.984558 C 202.812229 144.984558 203.096319 145.406432 203.096319 145.79315 C 203.096319 146.109555 202.812229 146.390804 202.492628 146.390804 L 186.192963 146.390804 C 185.908873 146.390804 185.589272 146.109555 185.589272 145.687681 C 185.589272 145.406432 185.908873 145.090027 186.192963 145.090027 Z M 186.583587 146.496273 L 201.99547 146.496273 C 202.315072 146.496273 202.599162 146.812678 202.599162 147.199395 C 202.599162 147.586113 202.315072 147.902518 201.99547 147.902518 L 186.512564 147.902518 C 186.086429 147.902518 185.908873 147.586113 185.908873 147.199395 C 185.908873 146.812678 186.086429 146.496273 186.512564 146.496273 Z M 191.590673 135.914274 L 192.798056 135.914274 L 192.798056 136.687709 L 193.685837 136.687709 L 193.685837 135.914274 L 194.999754 135.914274 L 194.999754 136.793178 L 195.887535 136.793178 L 195.887535 135.808806 L 197.094918 135.808806 L 197.094918 137.812706 C 197.094918 138.199423 196.917361 138.41036 196.59776 138.41036 L 192.194365 138.41036 C 191.910275 138.41036 191.590673 138.199423 191.590673 137.883018 Z M 196.207136 138.586141 L 196.491226 144.984558 L 192.194365 144.984558 L 192.513966 138.515829 L 196.207136 138.515829 " transform="matrix(-0.11,0,0,0.111111,52.778165,7.925711)"/>
<path style="fill-rule:nonzero;fill:rgb(100%,100%,0%);fill-opacity:1;stroke-width:0.5;stroke-linecap:butt;stroke-linejoin:miter;stroke:rgb(0%,0%,0%);stroke-opacity:1;stroke-miterlimit:4;" d="M 190.986982 141.609569 L 190.986982 144.984558 L 187.009722 144.984558 L 187.009722 141.609569 Z M 190.986982 141.609569 " transform="matrix(-0.11,0,0,0.111111,52.778165,7.925711)"/>
<path style="fill-rule:nonzero;fill:rgb(100%,100%,0%);fill-opacity:1;stroke-width:0.5;stroke-linecap:butt;stroke-linejoin:miter;stroke:rgb(0%,0%,0%);stroke-opacity:1;stroke-miterlimit:4;" d="M 191.004847 141.609569 L 191.004847 144.984558 L 186.992075 144.984558 L 186.992075 141.609569 Z M 191.004847 141.609569 " transform="matrix(-0.11,0,0,0.111111,51.612161,7.925711)"/>
<path style="fill-rule:nonzero;fill:rgb(100%,100%,0%);fill-opacity:1;stroke-width:0.5;stroke-linecap:butt;stroke-linejoin:miter;stroke:rgb(0%,0%,0%);stroke-opacity:1;stroke-miterlimit:4;" d="M 186.299497 139.008015 L 187.506879 139.008015 L 187.506879 139.992387 L 188.394661 139.992387 L 188.394661 139.008015 L 189.602043 139.008015 L 189.602043 139.992387 L 190.489825 139.992387 L 190.489825 139.008015 L 191.697207 139.008015 L 191.697207 141.011915 C 191.697207 141.398632 191.48414 141.609569 191.20005 141.609569 L 186.903188 141.609569 C 186.583587 141.609569 186.299497 141.32832 186.299497 141.011915 Z M 186.299497 139.008015 " transform="matrix(-0.11,0,0,0.111111,52.778165,7.925711)"/>
<path style="fill-rule:nonzero;fill:rgb(100%,100%,0%);fill-opacity:1;stroke-width:0.5;stroke-linecap:butt;stroke-linejoin:miter;stroke:rgb(0%,0%,0%);stroke-opacity:1;stroke-miterlimit:4;" d="M 186.317361 139.008015 L 187.489233 139.008015 L 187.489233 139.992387 L 188.412525 139.992387 L 188.412525 139.008015 L 189.584397 139.008015 L 189.584397 139.992387 L 190.507689 139.992387 L 190.507689 139.008015 L 191.715072 139.008015 L 191.715072 141.011915 C 191.715072 141.398632 191.502004 141.609569 191.182403 141.609569 L 186.885541 141.609569 C 186.56594 141.609569 186.317361 141.32832 186.317361 141.011915 Z M 186.317361 139.008015 " transform="matrix(-0.11,0,0,0.111111,51.612161,7.925711)"/>
<path style=" stroke:none;fill-rule:nonzero;fill:rgb(0%,0%,0%);fill-opacity:1;" d="M 31.449219 23.546875 C 31.449219 23.480469 31.351562 23.480469 31.351562 23.546875 L 31.351562 23.726562 L 31.449219 23.726562 L 31.449219 23.546875 "/>
<path style=" stroke:none;fill-rule:nonzero;fill:rgb(0%,0%,0%);fill-opacity:1;" d="M 32.03125 23.792969 C 32.03125 23.726562 31.945312 23.726562 31.945312 23.792969 L 31.945312 23.925781 L 32.03125 23.925781 L 32.03125 23.792969 "/>
<path style=" stroke:none;fill-rule:nonzero;fill:rgb(0%,0%,0%);fill-opacity:1;" d="M 30.867188 23.792969 C 30.867188 23.726562 30.777344 23.726562 30.777344 23.792969 L 30.777344 23.925781 L 30.867188 23.925781 L 30.867188 23.792969 "/>
<path style=" stroke:none;fill-rule:nonzero;fill:rgb(100%,100%,0%);fill-opacity:1;" d="M 29.871094 30.441406 C 30.292969 30.003906 30.089844 29.59375 30.089844 29.59375 C 30.082031 29.585938 29.648438 29.367188 29.21875 29.796875 L 29.863281 30.449219 "/>
<path style="fill-rule:nonzero;fill:rgb(100%,100%,0%);fill-opacity:1;stroke-width:0.5;stroke-linecap:butt;stroke-linejoin:miter;stroke:rgb(0%,0%,0%);stroke-opacity:1;stroke-miterlimit:4;" d="M 186.800999 147.714136 L 186.111105 154.004394 L 190.308358 153.990168 C 190.300384 148.793292 194.32156 148.003042 194.32156 148.003042 C 194.396474 147.978696 198.295682 149.111226 198.403132 154.009133 L 202.600385 153.994908 L 201.791079 147.591944 L 186.800846 147.614196 Z M 185.811449 154.101781 L 202.800411 154.09655 C 203.100221 154.099103 203.40049 154.401476 203.401103 154.801236 C 203.40187 155.300935 203.102521 155.598202 202.802712 155.595649 L 185.81375 155.60088 C 185.51394 155.598326 185.213671 155.295953 185.212904 154.796254 C 185.212291 154.396494 185.51164 154.099227 185.911386 154.102632 Z M 185.811449 154.101781 " transform="matrix(-0.07751,-0.0788414,-0.078053,0.0782929,56.664732,33.350186)"/>
<path style="fill-rule:nonzero;fill:rgb(100%,100%,0%);fill-opacity:1;stroke-width:0.5;stroke-linecap:butt;stroke-linejoin:miter;stroke:rgb(0%,0%,0%);stroke-opacity:1;stroke-miterlimit:4;" d="M 192.007278 154.004636 C 192.002217 150.706618 194.299298 149.776763 194.299298 149.776763 C 194.299298 149.776763 196.599369 150.795737 196.604276 153.993814 L 192.007278 154.004636 M 186.19724 145.010651 L 202.486647 144.999463 C 202.786457 145.002016 203.086879 145.404329 203.087493 145.804089 C 203.087953 146.103909 202.788603 146.401175 202.488794 146.398622 L 186.199387 146.40981 C 185.899578 146.407257 185.599309 146.104884 185.598695 145.705124 C 185.598235 145.405305 185.897584 145.108038 186.197394 145.110591 Z M 186.599286 146.513154 L 201.989265 146.494307 C 202.289075 146.49686 202.589344 146.799233 202.589957 147.198993 C 202.590571 147.598752 202.291222 147.896019 201.991412 147.893466 L 186.501497 147.911462 C 186.101751 147.908058 185.901418 147.606536 185.900805 147.206776 C 185.900191 146.807017 186.099604 146.508899 186.49935 146.512303 Z M 191.604721 135.887332 L 192.803958 135.897545 L 192.805185 136.697064 L 193.704613 136.704724 L 193.703386 135.905204 L 195.00256 135.916268 L 195.00394 136.815727 L 195.878345 136.798189 L 195.876812 135.79879 L 197.100995 135.78423 L 197.104062 137.783029 C 197.104675 138.182789 196.905109 138.380966 196.580354 138.403185 L 192.208174 138.390937 C 191.908364 138.388384 191.608248 138.185951 191.607788 137.886131 Z M 196.180915 138.599661 L 196.490539 144.99837 L 192.193349 145.011744 L 192.508136 138.49343 L 196.180761 138.499721 " transform="matrix(-0.07751,-0.0788414,-0.078053,0.0782929,56.664732,33.350186)"/>
<path style="fill-rule:nonzero;fill:rgb(100%,100%,0%);fill-opacity:1;stroke-width:0.5;stroke-linecap:butt;stroke-linejoin:miter;stroke:rgb(0%,0%,0%);stroke-opacity:1;stroke-miterlimit:4;" d="M 190.988898 141.603574 L 190.994112 145.001532 L 186.996732 145.01746 L 187.016464 141.59473 Z M 190.988898 141.603574 " transform="matrix(-0.07751,-0.0788414,-0.078053,0.0782929,56.664732,33.350186)"/>
<path style="fill-rule:nonzero;fill:rgb(100%,100%,0%);fill-opacity:1;stroke-width:0.5;stroke-linecap:butt;stroke-linejoin:miter;stroke:rgb(0%,0%,0%);stroke-opacity:1;stroke-miterlimit:4;" d="M 190.982006 141.593846 L 190.987219 144.991804 L 186.989839 145.007731 L 187.009571 141.585002 Z M 190.982006 141.593846 " transform="matrix(-0.07751,-0.0788414,-0.078053,0.0782929,55.843126,32.514467)"/>
<path style="fill-rule:nonzero;fill:rgb(100%,100%,0%);fill-opacity:1;stroke-width:0.5;stroke-linecap:butt;stroke-linejoin:miter;stroke:rgb(0%,0%,0%);stroke-opacity:1;stroke-miterlimit:4;" d="M 186.312921 138.990334 L 187.512159 139.000547 L 187.513692 139.999946 L 188.41312 140.007606 L 188.411586 139.008206 L 189.585801 138.993221 L 189.587334 139.992621 L 190.486762 140.00028 L 190.485229 139.000881 L 191.709412 138.986321 L 191.687533 141.009892 C 191.688146 141.409652 191.48858 141.607829 191.188771 141.605276 L 186.916527 141.593879 C 186.56675 141.5909 186.316525 141.338923 186.291043 141.013905 Z M 186.312921 138.990334 " transform="matrix(-0.07751,-0.0788414,-0.078053,0.0782929,56.664732,33.350186)"/>
<path style="fill-rule:nonzero;fill:rgb(100%,100%,0%);fill-opacity:1;stroke-width:0.5;stroke-linecap:butt;stroke-linejoin:miter;stroke:rgb(0%,0%,0%);stroke-opacity:1;stroke-miterlimit:4;" d="M 186.281083 139.005378 L 187.505266 138.990819 L 187.5068 139.990218 L 188.406227 139.997877 L 188.404694 138.998478 L 189.603931 139.008691 L 189.605464 140.00809 L 190.504892 140.01575 L 190.503359 139.01635 L 191.677573 139.001365 L 191.68064 141.000164 C 191.681254 141.399923 191.481688 141.598101 191.181878 141.595548 L 186.884689 141.608923 C 186.58488 141.60637 186.309633 141.329194 186.28415 141.004177 Z M 186.281083 139.005378 " transform="matrix(-0.07751,-0.0788414,-0.078053,0.0782929,55.843126,32.514467)"/>
<path style=" stroke:none;fill-rule:nonzero;fill:rgb(0%,0%,0%);fill-opacity:1;" d="M 30.660156 29.070312 C 30.707031 29.023438 30.636719 28.953125 30.589844 29 L 30.464844 29.125 L 30.535156 29.195312 L 30.660156 29.070312 "/>
<path style=" stroke:none;fill-rule:nonzero;fill:rgb(0%,0%,0%);fill-opacity:1;" d="M 30.898438 29.660156 C 30.945312 29.613281 30.886719 29.550781 30.839844 29.597656 L 30.746094 29.691406 L 30.808594 29.753906 L 30.898438 29.660156 "/>
<path style=" stroke:none;fill-rule:nonzero;fill:rgb(0%,0%,0%);fill-opacity:1;" d="M 30.078125 28.824219 C 30.125 28.777344 30.0625 28.714844 30.015625 28.761719 L 29.921875 28.855469 L 29.984375 28.917969 L 30.078125 28.824219 "/>
<path style=" stroke:none;fill-rule:nonzero;fill:rgb(0%,20%,60%);fill-opacity:1;" d="M 25.585938 25.269531 C 25.585938 25.503906 25.671875 25.730469 25.828125 25.902344 C 25.976562 26.070312 26.1875 26.167969 26.410156 26.171875 C 26.640625 26.171875 26.851562 26.058594 26.992188 25.902344 C 27.152344 25.730469 27.238281 25.503906 27.234375 25.269531 L 27.234375 24.070312 L 25.585938 24.070312 L 25.585938 25.269531 "/>
<path style=" stroke:none;fill-rule:nonzero;fill:rgb(100%,100%,100%);fill-opacity:1;" d="M 26.136719 24.527344 C 26.136719 24.617188 26.0625 24.691406 25.972656 24.691406 C 25.878906 24.691406 25.804688 24.617188 25.804688 24.527344 C 25.804688 24.433594 25.878906 24.359375 25.972656 24.359375 C 26.0625 24.359375 26.136719 24.433594 26.136719 24.527344 Z M 26.136719 24.527344 "/>
<path style=" stroke:none;fill-rule:nonzero;fill:rgb(100%,100%,100%);fill-opacity:1;" d="M 27.050781 24.527344 C 27.050781 24.617188 26.976562 24.691406 26.882812 24.691406 C 26.792969 24.691406 26.71875 24.617188 26.71875 24.527344 C 26.71875 24.433594 26.792969 24.359375 26.882812 24.359375 C 26.976562 24.359375 27.050781 24.433594 27.050781 24.527344 Z M 27.050781 24.527344 "/>
<path style=" stroke:none;fill-rule:nonzero;fill:rgb(100%,100%,100%);fill-opacity:1;" d="M 26.585938 24.96875 C 26.585938 25.0625 26.511719 25.136719 26.421875 25.136719 C 26.332031 25.136719 26.257812 25.0625 26.257812 24.96875 C 26.257812 24.878906 26.332031 24.804688 26.421875 24.804688 C 26.511719 24.804688 26.585938 24.878906 26.585938 24.96875 Z M 26.585938 24.96875 "/>
<path style=" stroke:none;fill-rule:nonzero;fill:rgb(100%,100%,100%);fill-opacity:1;" d="M 26.136719 25.4375 C 26.136719 25.527344 26.0625 25.605469 25.972656 25.605469 C 25.878906 25.605469 25.804688 25.527344 25.804688 25.4375 C 25.804688 25.34375 25.878906 25.269531 25.972656 25.269531 C 26.0625 25.269531 26.136719 25.34375 26.136719 25.4375 Z M 26.136719 25.4375 "/>
<path style=" stroke:none;fill-rule:nonzero;fill:rgb(100%,100%,100%);fill-opacity:1;" d="M 27.050781 25.4375 C 27.050781 25.527344 26.976562 25.605469 26.882812 25.605469 C 26.792969 25.605469 26.71875 25.527344 26.71875 25.4375 C 26.71875 25.34375 26.792969 25.269531 26.882812 25.269531 C 26.976562 25.269531 27.050781 25.34375 27.050781 25.4375 Z M 27.050781 25.4375 "/>
<path style=" stroke:none;fill-rule:nonzero;fill:rgb(0%,20%,60%);fill-opacity:1;" d="M 25.585938 22.382812 C 25.585938 22.617188 25.671875 22.84375 25.828125 23.015625 C 25.976562 23.183594 26.1875 23.277344 26.410156 23.28125 C 26.640625 23.28125 26.851562 23.171875 26.992188 23.015625 C 27.152344 22.84375 27.238281 22.617188 27.234375 22.382812 L 27.234375 21.179688 L 25.585938 21.179688 L 25.585938 22.382812 "/>
<path style=" stroke:none;fill-rule:nonzero;fill:rgb(100%,100%,100%);fill-opacity:1;" d="M 26.136719 21.636719 C 26.136719 21.730469 26.0625 21.804688 25.972656 21.804688 C 25.878906 21.804688 25.804688 21.730469 25.804688 21.636719 C 25.804688 21.542969 25.878906 21.46875 25.972656 21.46875 C 26.0625 21.46875 26.136719 21.542969 26.136719 21.636719 Z M 26.136719 21.636719 "/>
<path style=" stroke:none;fill-rule:nonzero;fill:rgb(100%,100%,100%);fill-opacity:1;" d="M 27.050781 21.636719 C 27.050781 21.730469 26.976562 21.804688 26.882812 21.804688 C 26.792969 21.804688 26.71875 21.730469 26.71875 21.636719 C 26.71875 21.542969 26.792969 21.46875 26.882812 21.46875 C 26.976562 21.46875 27.050781 21.542969 27.050781 21.636719 Z M 27.050781 21.636719 "/>
<path style=" stroke:none;fill-rule:nonzero;fill:rgb(100%,100%,100%);fill-opacity:1;" d="M 26.585938 22.082031 C 26.585938 22.171875 26.511719 22.246094 26.421875 22.246094 C 26.332031 22.246094 26.257812 22.171875 26.257812 22.082031 C 26.257812 21.988281 26.332031 21.914062 26.421875 21.914062 C 26.511719 21.914062 26.585938 21.988281 26.585938 22.082031 Z M 26.585938 22.082031 "/>
<path style=" stroke:none;fill-rule:nonzero;fill:rgb(100%,100%,100%);fill-opacity:1;" d="M 26.136719 22.546875 C 26.136719 22.640625 26.0625 22.714844 25.972656 22.714844 C 25.878906 22.714844 25.804688 22.640625 25.804688 22.546875 C 25.804688 22.457031 25.878906 22.382812 25.972656 22.382812 C 26.0625 22.382812 26.136719 22.457031 26.136719 22.546875 Z M 26.136719 22.546875 "/>
<path style=" stroke:none;fill-rule:nonzero;fill:rgb(100%,100%,100%);fill-opacity:1;" d="M 27.050781 22.546875 C 27.050781 22.640625 26.976562 22.714844 26.882812 22.714844 C 26.792969 22.714844 26.71875 22.640625 26.71875 22.546875 C 26.71875 22.457031 26.792969 22.382812 26.882812 22.382812 C 26.976562 22.382812 27.050781 22.457031 27.050781 22.546875 Z M 27.050781 22.546875 "/>
<path style=" stroke:none;fill-rule:nonzero;fill:rgb(0%,20%,60%);fill-opacity:1;" d="M 23.296875 25.269531 C 23.296875 25.503906 23.382812 25.730469 23.539062 25.902344 C 23.6875 26.070312 23.898438 26.167969 24.125 26.171875 C 24.355469 26.171875 24.5625 26.058594 24.707031 25.902344 C 24.863281 25.730469 24.949219 25.503906 24.949219 25.269531 L 24.949219 24.070312 L 23.296875 24.070312 L 23.296875 25.269531 "/>
<path style=" stroke:none;fill-rule:nonzero;fill:rgb(100%,100%,100%);fill-opacity:1;" d="M 23.847656 24.527344 C 23.847656 24.617188 23.773438 24.691406 23.683594 24.691406 C 23.59375 24.691406 23.519531 24.617188 23.519531 24.527344 C 23.519531 24.433594 23.59375 24.359375 23.683594 24.359375 C 23.773438 24.359375 23.847656 24.433594 23.847656 24.527344 Z M 23.847656 24.527344 "/>
<path style=" stroke:none;fill-rule:nonzero;fill:rgb(100%,100%,100%);fill-opacity:1;" d="M 24.761719 24.527344 C 24.761719 24.617188 24.6875 24.691406 24.597656 24.691406 C 24.503906 24.691406 24.429688 24.617188 24.429688 24.527344 C 24.429688 24.433594 24.503906 24.359375 24.597656 24.359375 C 24.6875 24.359375 24.761719 24.433594 24.761719 24.527344 Z M 24.761719 24.527344 "/>
<path style=" stroke:none;fill-rule:nonzero;fill:rgb(100%,100%,100%);fill-opacity:1;" d="M 24.300781 24.96875 C 24.300781 25.0625 24.226562 25.136719 24.132812 25.136719 C 24.042969 25.136719 23.96875 25.0625 23.96875 24.96875 C 23.96875 24.878906 24.042969 24.804688 24.132812 24.804688 C 24.226562 24.804688 24.300781 24.878906 24.300781 24.96875 Z M 24.300781 24.96875 "/>
<path style=" stroke:none;fill-rule:nonzero;fill:rgb(100%,100%,100%);fill-opacity:1;" d="M 23.847656 25.4375 C 23.847656 25.527344 23.773438 25.605469 23.683594 25.605469 C 23.59375 25.605469 23.519531 25.527344 23.519531 25.4375 C 23.519531 25.34375 23.59375 25.269531 23.683594 25.269531 C 23.773438 25.269531 23.847656 25.34375 23.847656 25.4375 Z M 23.847656 25.4375 "/>
<path style=" stroke:none;fill-rule:nonzero;fill:rgb(100%,100%,100%);fill-opacity:1;" d="M 24.761719 25.4375 C 24.761719 25.527344 24.6875 25.605469 24.597656 25.605469 C 24.503906 25.605469 24.429688 25.527344 24.429688 25.4375 C 24.429688 25.34375 24.503906 25.269531 24.597656 25.269531 C 24.6875 25.269531 24.761719 25.34375 24.761719 25.4375 Z M 24.761719 25.4375 "/>
<path style=" stroke:none;fill-rule:nonzero;fill:rgb(0%,20%,60%);fill-opacity:1;" d="M 27.875 25.269531 C 27.871094 25.503906 27.957031 25.730469 28.117188 25.902344 C 28.265625 26.070312 28.476562 26.167969 28.699219 26.171875 C 28.929688 26.171875 29.140625 26.058594 29.28125 25.902344 C 29.441406 25.730469 29.527344 25.503906 29.523438 25.269531 L 29.523438 24.070312 L 27.875 24.070312 L 27.875 25.269531 "/>
<path style=" stroke:none;fill-rule:nonzero;fill:rgb(100%,100%,100%);fill-opacity:1;" d="M 28.425781 24.527344 C 28.425781 24.617188 28.351562 24.691406 28.257812 24.691406 C 28.167969 24.691406 28.09375 24.617188 28.09375 24.527344 C 28.09375 24.433594 28.167969 24.359375 28.257812 24.359375 C 28.351562 24.359375 28.425781 24.433594 28.425781 24.527344 Z M 28.425781 24.527344 "/>
<path style=" stroke:none;fill-rule:nonzero;fill:rgb(100%,100%,100%);fill-opacity:1;" d="M 29.335938 24.527344 C 29.335938 24.617188 29.261719 24.691406 29.171875 24.691406 C 29.082031 24.691406 29.007812 24.617188 29.007812 24.527344 C 29.007812 24.433594 29.082031 24.359375 29.171875 24.359375 C 29.261719 24.359375 29.335938 24.433594 29.335938 24.527344 Z M 29.335938 24.527344 "/>
<path style=" stroke:none;fill-rule:nonzero;fill:rgb(100%,100%,100%);fill-opacity:1;" d="M 28.875 24.96875 C 28.875 25.0625 28.800781 25.136719 28.710938 25.136719 C 28.617188 25.136719 28.546875 25.0625 28.546875 24.96875 C 28.546875 24.878906 28.617188 24.804688 28.710938 24.804688 C 28.800781 24.804688 28.875 24.878906 28.875 24.96875 Z M 28.875 24.96875 "/>
<path style=" stroke:none;fill-rule:nonzero;fill:rgb(100%,100%,100%);fill-opacity:1;" d="M 28.425781 25.4375 C 28.425781 25.527344 28.351562 25.605469 28.257812 25.605469 C 28.167969 25.605469 28.09375 25.527344 28.09375 25.4375 C 28.09375 25.34375 28.167969 25.269531 28.257812 25.269531 C 28.351562 25.269531 28.425781 25.34375 28.425781 25.4375 Z M 28.425781 25.4375 "/>
<path style=" stroke:none;fill-rule:nonzero;fill:rgb(100%,100%,100%);fill-opacity:1;" d="M 29.335938 25.4375 C 29.335938 25.527344 29.261719 25.605469 29.171875 25.605469 C 29.082031 25.605469 29.007812 25.527344 29.007812 25.4375 C 29.007812 25.34375 29.082031 25.269531 29.171875 25.269531 C 29.261719 25.269531 29.335938 25.34375 29.335938 25.4375 Z M 29.335938 25.4375 "/>
<path style=" stroke:none;fill-rule:nonzero;fill:rgb(0%,20%,60%);fill-opacity:1;" d="M 25.585938 28.136719 C 25.585938 28.371094 25.671875 28.597656 25.828125 28.769531 C 25.976562 28.9375 26.1875 29.035156 26.410156 29.035156 C 26.640625 29.035156 26.851562 28.925781 26.992188 28.769531 C 27.152344 28.597656 27.238281 28.371094 27.234375 28.136719 L 27.234375 26.9375 L 25.585938 26.9375 L 25.585938 28.136719 "/>
<path style=" stroke:none;fill-rule:nonzero;fill:rgb(100%,100%,100%);fill-opacity:1;" d="M 26.136719 27.390625 C 26.136719 27.484375 26.0625 27.558594 25.972656 27.558594 C 25.878906 27.558594 25.804688 27.484375 25.804688 27.390625 C 25.804688 27.300781 25.878906 27.226562 25.972656 27.226562 C 26.0625 27.226562 26.136719 27.300781 26.136719 27.390625 Z M 26.136719 27.390625 "/>
<path style=" stroke:none;fill-rule:nonzero;fill:rgb(100%,100%,100%);fill-opacity:1;" d="M 27.050781 27.390625 C 27.050781 27.484375 26.976562 27.558594 26.882812 27.558594 C 26.792969 27.558594 26.71875 27.484375 26.71875 27.390625 C 26.71875 27.300781 26.792969 27.226562 26.882812 27.226562 C 26.976562 27.226562 27.050781 27.300781 27.050781 27.390625 Z M 27.050781 27.390625 "/>
<path style=" stroke:none;fill-rule:nonzero;fill:rgb(100%,100%,100%);fill-opacity:1;" d="M 26.585938 27.835938 C 26.585938 27.929688 26.511719 28.003906 26.421875 28.003906 C 26.332031 28.003906 26.257812 27.929688 26.257812 27.835938 C 26.257812 27.746094 26.332031 27.671875 26.421875 27.671875 C 26.511719 27.671875 26.585938 27.746094 26.585938 27.835938 Z M 26.585938 27.835938 "/>
<path style=" stroke:none;fill-rule:nonzero;fill:rgb(100%,100%,100%);fill-opacity:1;" d="M 26.136719 28.304688 C 26.136719 28.394531 26.0625 28.46875 25.972656 28.46875 C 25.878906 28.46875 25.804688 28.394531 25.804688 28.304688 C 25.804688 28.210938 25.878906 28.136719 25.972656 28.136719 C 26.0625 28.136719 26.136719 28.210938 26.136719 28.304688 Z M 26.136719 28.304688 "/>
<path style=" stroke:none;fill-rule:nonzero;fill:rgb(100%,100%,100%);fill-opacity:1;" d="M 27.050781 28.304688 C 27.050781 28.394531 26.976562 28.46875 26.882812 28.46875 C 26.792969 28.46875 26.71875 28.394531 26.71875 28.304688 C 26.71875 28.210938 26.792969 28.136719 26.882812 28.136719 C 26.976562 28.136719 27.050781 28.210938 27.050781 28.304688 Z M 27.050781 28.304688 "/>
</g>
</svg>
